<svg width="48" height="48" xmlns="http://www.w3.org/2000/svg">

 <g>
  <title>background</title>
  <rect fill="none" id="canvas_background" height="402" width="582" y="-1" x="-1"/>
 </g>
 <g>
  <title>Layer 1</title>
  <path id="svg_1" fill="none" d="m0,0l48,0l0,48l-48,0l0,-48z"/>
  <path fill="#ffffff" id="svg_2" d="m12,38c0,2.2 1.8,4 4,4l16,0c2.2,0 4,-1.8 4,-4l0,-24l-24,0l0,24zm4.93,-14.24l2.83,-2.83l4.24,4.24l4.24,-4.24l2.83,2.83l-4.24,4.24l4.24,4.24l-2.83,2.83l-4.24,-4.24l-4.24,4.24l-2.83,-2.83l4.24,-4.24l-4.24,-4.24zm14.07,-15.76l-2,-2l-10,0l-2,2l-7,0l0,4l28,0l0,-4l-7,0z"/>
  <path id="svg_3" fill="none" d="m0.238443,0.119222l48,0l0,48l-48,0l0,-48z"/>
 </g>
</svg>