<svg width="64" height="64" xmlns="http://www.w3.org/2000/svg">

 <g>
  <title>background</title>
  <rect fill="none" id="canvas_background" height="402" width="582" y="-1" x="-1"/>
 </g>
 <g>
  <title>Layer 1</title>
  <path fill="#ffffff" id="svg_2" d="m58.757858,15.703587l-4.368,-4.362c-0.451,-0.451 -1.044,-0.677 -1.636,-0.677c-0.592,0 -1.184,0.225 -1.635,0.676l-3.494,3.484l7.639,7.626l3.494,-3.483c0.903,-0.902 0.903,-2.365 0,-3.264z"/>
  <polygon fill="#ffffff" id="svg_3" points="24.943859189748764,36.98645180463791 32.58385667204857,44.613450706005096 53.62885484099388,23.6074520945549 45.988855451345444,15.980452239513397 "/>
  <polygon fill="#ffffff" id="svg_4" points="23.61294996738434,38.14131563901901 21.98194944858551,47.3933145403862 31.252949357032776,45.767315089702606 "/>
  <path fill="#ffffff" transform="rotate(0.2896891236305237 32.55607986450195,35.04622650146555) " id="svg_5" d="m46.959581,49.448729l-28.806,0l0,-28.806l20.329,0l5.01,-5l-27.106,0c-1.779,0 -3.234,1.455 -3.234,3.234l0,32.339c0,1.779 1.455,3.234 3.234,3.234l32.339,0c1.779,0 3.234,-1.455 3.234,-3.234l0,-23.121l-5,4.991l0,16.363z"/>
 </g>
</svg>